<svg width="65" height="62" viewBox="0 0 65 62" fill="none" xmlns="http://www.w3.org/2000/svg">
<path fill-rule="evenodd" clip-rule="evenodd" d="M51.736 5.93506L46.0332 0.232239L42.4976 3.76777L48.2005 9.47059L49.6355 10.9056H49.5883H49.5394H49.4905H49.4414H49.3922H49.3429H49.2935H49.2439H49.1943H49.1445H49.0946H49.0446H48.9945H48.9443H48.894H48.8435H48.7929H48.7422H48.6914H48.6405H48.5894H48.5382H48.487H48.4356H48.384H48.3324H48.2806H48.2288H48.1768H48.1247H48.0724H48.0201H47.9676H47.915H47.8623H47.8095H47.7565H47.7035H47.6503H47.597H47.5436H47.49H47.4363H47.3826H47.3286H47.2746H47.2205H47.1662H47.1118H47.0573H47.0026H46.9479H46.893H46.838H46.7829H46.7276H46.6722H46.6168H46.5611H46.5054H46.4495H46.3935H46.3374H46.2812H46.2248H46.1684H46.1117H46.055H45.9982H45.9412H45.8841H45.8268H45.7695H45.712H45.6544H45.5967H45.5388H45.4808H45.4227H45.3645H45.3061H45.2476H45.189H45.1303H45.0714H45.0124H44.9533H44.894H44.8347H44.7752H44.7155H44.6558H44.5959H44.5359H44.4757H44.4154H44.355H44.2945H44.2338H44.173H44.1121H44.0511H43.9899H43.9286H43.8672H43.8056H43.7439H43.6821H43.6201H43.558H43.4958H43.4334H43.371H43.3083H43.2456H43.1827H43.1197H43.0566H42.9933H42.9299H42.8664H42.8027H42.7389H42.6749H42.6109H42.5467H42.4823H42.4179H42.3533H42.2885H42.2237H42.1587H42.0935H42.0283H41.9628H41.8973H41.8316H41.7658H41.6999H41.6338H41.5676H41.5012H41.4347H41.3681H41.3014H41.2345H41.1674H41.1003H41.033H40.9655H40.8979H40.8302H40.7624H40.6944H40.6263H40.558H40.4896H40.4211H40.3524H40.2836H40.2146H40.1455H40.0763H40.0069H39.9374H39.8678H39.798H39.728H39.658H39.5878H39.5174H39.4469H39.3763H39.3055H39.2346H39.1636H39.0924H39.0211H38.9496H38.878H38.8062H38.7343H38.6623H38.5901H38.5178H38.4453H38.3727H38.3H38.2271H38.1541H38.0809H38.0076H37.9341H37.8605H37.7868H37.7129H37.6388H37.5647H37.4903H37.4159H37.3412H37.2665H37.1916H37.1165H37.0414H36.966H36.8905H36.8149H36.7391H36.6632H36.5872H36.5109H36.4346H36.3581H36.2814H36.2046H36.1277H36.0506H35.9734H35.896H35.8184H35.7408H35.6629H35.585H35.5068H35.4286H35.3502H35.2716H35.1929H35.114H35.035H34.9558H34.8765H34.7971H34.7174H34.6377H34.5578H34.4777H34.3975H34.3171H34.2366H34.156H34.0752H33.9942H33.9131H33.8318H33.7504H33.6688H33.5871H33.5052H33.4232H33.341H33.2587H33.1762H33.0936H33.0108H32.9279H32.8448H32.7615H32.6781H32.5946H32.5109H32.427H32.343H32.2588H32.1745H32.09H32.0054H31.9206H31.8357H31.7506H31.6654H31.5799H31.4944H31.4087H31.3228H31.2368H31.1506H31.0643H30.9778H30.8911H30.8043H30.7173H30.6302H30.5429H30.4555H30.3679H30.2802H30.1923H30.1042H30.016H29.9276H29.839H29.7503H29.6615H29.5725H29.4833H29.394H29.3045H29.2148H29.125H29.035H28.9449H28.8546H28.7642H28.6735H28.5828H28.4918H28.4008H28.3095H28.2181H28.1265H28.0348H27.9429H27.8508H27.7586H27.6662H27.5737H27.481H27.3881H27.2951H27.2019H27.1085H27.015H26.9213H26.8275H26.7334H26.6393H26.5449H26.4504H26.3558H26.2609H26.1659H26.0708H25.9755H25.88H25.7843H25.6885H25.5925H25.4964H25.4001H25.3036H25.2069H25.1101H25.0132H24.916H24.8187H24.7212H24.6236H24.5258H24.4278H24.3297H24.2313H24.1329H24.0342H23.9354H23.8364H23.7373H23.638H23.5385H23.4388H23.339H23.239H23.1389C14.2472 10.9056 6.78227 13.4828 2.99912 18.603C-0.995607 24.0096 -0.16797 31.1487 5.1847 38.4128L9.20993 35.4468C4.58235 29.1667 4.82653 24.5437 7.02052 21.5743C9.42608 18.3185 14.922 15.9056 23.1389 15.9056H23.239H23.339H23.4388H23.5385H23.638H23.7373H23.8364H23.9354H24.0342H24.1329H24.2313H24.3297H24.4278H24.5258H24.6236H24.7212H24.8187H24.916H25.0132H25.1101H25.2069H25.3036H25.4001H25.4964H25.5925H25.6885H25.7843H25.88H25.9755H26.0708H26.1659H26.2609H26.3558H26.4504H26.5449H26.6393H26.7334H26.8275H26.9213H27.015H27.1085H27.2019H27.2951H27.3881H27.481H27.5737H27.6662H27.7586H27.8508H27.9429H28.0348H28.1265H28.2181H28.3095H28.4008H28.4918H28.5828H28.6735H28.7642H28.8546H28.9449H29.035H29.125H29.2148H29.3045H29.394H29.4833H29.5725H29.6615H29.7503H29.839H29.9276H30.016H30.1042H30.1923H30.2802H30.3679H30.4555H30.5429H30.6302H30.7173H30.8043H30.8911H30.9778H31.0643H31.1506H31.2368H31.3228H31.4087H31.4944H31.5799H31.6654H31.7506H31.8357H31.9206H32.0054H32.09H32.1745H32.2588H32.343H32.427H32.5109H32.5946H32.6781H32.7615H32.8448H32.9279H33.0108H33.0936H33.1762H33.2587H33.341H33.4232H33.5052H33.5871H33.6688H33.7504H33.8318H33.9131H33.9942H34.0752H34.156H34.2366H34.3171H34.3975H34.4777H34.5578H34.6377H34.7174H34.7971H34.8765H34.9558H35.035H35.114H35.1929H35.2716H35.3502H35.4286H35.5068H35.585H35.6629H35.7408H35.8184H35.896H35.9734H36.0506H36.1277H36.2046H36.2814H36.3581H36.4346H36.5109H36.5872H36.6632H36.7391H36.8149H36.8905H36.966H37.0414H37.1165H37.1916H37.2665H37.3412H37.4159H37.4903H37.5647H37.6388H37.7129H37.7868H37.8605H37.9341H38.0076H38.0809H38.1541H38.2271H38.3H38.3727H38.4453H38.5178H38.5901H38.6623H38.7343H38.8062H38.878H38.9496H39.0211H39.0924H39.1636H39.2346H39.3055H39.3763H39.4469H39.5174H39.5878H39.658H39.728H39.798H39.8678H39.9374H40.0069H40.0763H40.1455H40.2146H40.2836H40.3524H40.4211H40.4896H40.558H40.6263H40.6944H40.7624H40.8302H40.8979H40.9655H41.033H41.1003H41.1674H41.2345H41.3014H41.3681H41.4347H41.5012H41.5676H41.6338H41.6999H41.7658H41.8316H41.8973H41.9628H42.0283H42.0935H42.1587H42.2237H42.2885H42.3533H42.4179H42.4823H42.5467H42.6109H42.6749H42.7389H42.8027H42.8664H42.9299H42.9933H43.0566H43.1197H43.1827H43.2456H43.3083H43.371H43.4334H43.4958H43.558H43.6201H43.6821H43.7439H43.8056H43.8672H43.9286H43.9899H44.0511H44.1121H44.173H44.2338H44.2945H44.355H44.4154H44.4757H44.5359H44.5959H44.6558H44.7155H44.7752H44.8347H44.894H44.9533H45.0124H45.0714H45.1303H45.189H45.2476H45.3061H45.3645H45.4227H45.4808H45.5388H45.5967H45.6544H45.712H45.7695H45.8268H45.8841H45.9412H45.9982H46.055H46.1117H46.1684H46.2248H46.2812H46.3374H46.3935H46.4495H46.5054H46.5611H46.6168H46.6722H46.7276H46.7829H46.838H46.893H46.9479H47.0026H47.0573H47.1118H47.1662H47.2205H47.2746H47.3286H47.3826H47.4363H47.49H47.5436H47.597H47.6503H47.7035H47.7565H47.8095H47.8623H47.915H47.9676H48.0201H48.0724H48.1247H48.1768H48.2288H48.2806H48.3324H48.384H48.4356H48.487H48.5382H48.5894H48.6405H48.6914H48.7422H48.7929H48.8435H48.894H48.9443H48.9945H49.0446H49.0946H49.1445H49.1943H49.2439H49.2935H49.3429H49.3922H49.4414H49.4905H49.5394H49.5883H49.6355L48.2005 17.3407L42.4976 23.0435L46.0332 26.5791L51.736 20.8762L57.4388 15.1734L59.2066 13.4056L57.4388 11.6379L51.736 5.93506ZM6.97974 50.0782L18.237 61.6304L21.8179 58.1409L14.7729 50.9113L14.7838 50.9114L14.8347 50.9121L14.8859 50.9128L14.9372 50.9134L14.9886 50.9141L15.0402 50.9147L15.092 50.9154L15.144 50.9161L15.1961 50.9168L15.2484 50.9174L15.3008 50.9181L15.3534 50.9188L15.4061 50.9195L15.4591 50.9202L15.5122 50.9208L15.5654 50.9215L15.6188 50.9222L15.6724 50.9229L15.7261 50.9236L15.78 50.9243L15.8341 50.925L15.8883 50.9257L15.9427 50.9264L15.9972 50.9271L16.0519 50.9278L16.1068 50.9285L16.1618 50.9292L16.217 50.93L16.2723 50.9307L16.3278 50.9314L16.3835 50.9321L16.4393 50.9328L16.4953 50.9336L16.5515 50.9343L16.6078 50.935L16.6642 50.9357L16.7209 50.9365L16.7777 50.9372L16.8346 50.9379L16.8917 50.9387L16.949 50.9394L17.0064 50.9402L17.064 50.9409L17.1217 50.9417L17.1796 50.9424L17.2377 50.9432L17.2959 50.9439L17.3542 50.9447L17.4128 50.9454L17.4715 50.9462L17.5303 50.9469L17.5893 50.9477L17.6485 50.9485L17.7078 50.9492L17.7673 50.95L17.8269 50.9508L17.8867 50.9515L17.9466 50.9523L18.0067 50.9531L18.067 50.9539L18.1274 50.9547L18.188 50.9554L18.2487 50.9562L18.3096 50.957L18.3706 50.9578L18.4318 50.9586L18.4932 50.9594L18.5547 50.9602L18.6164 50.961L18.6782 50.9618L18.7402 50.9626L18.8023 50.9634L18.8646 50.9642L18.927 50.965L18.9896 50.9658L19.0523 50.9666L19.1153 50.9674L19.1783 50.9683L19.2415 50.9691L19.3049 50.9699L19.3684 50.9707L19.4321 50.9715L19.4959 50.9724L19.5599 50.9732L19.624 50.974L19.6883 50.9748L19.7527 50.9757L19.8173 50.9765L19.8821 50.9773L19.947 50.9782L20.012 50.979L20.0772 50.9799L20.1426 50.9807L20.2081 50.9816L20.2738 50.9824L20.3396 50.9833L20.4055 50.9841L20.4716 50.985L20.5379 50.9858L20.6043 50.9867L20.6709 50.9875L20.7376 50.9884L20.8045 50.9893L20.8715 50.9901L20.9387 50.991L21.006 50.9919L21.0735 50.9928L21.1411 50.9936L21.2089 50.9945L21.2768 50.9954L21.3449 50.9963L21.4131 50.9971L21.4815 50.998L21.55 50.9989L21.6187 50.9998L21.6875 51.0007L21.7565 51.0016L21.8256 51.0025L21.8949 51.0034L21.9643 51.0043L22.0339 51.0052L22.1036 51.0061L22.1735 51.007L22.2435 51.0079L22.3137 51.0088L22.384 51.0097L22.4545 51.0106L22.5251 51.0115L22.5958 51.0124L22.6667 51.0134L22.7378 51.0143L22.809 51.0152L22.8803 51.0161L22.9518 51.017L23.0235 51.018L23.0953 51.0189L23.1672 51.0198L23.2393 51.0208L23.3115 51.0217L23.3839 51.0226L23.4564 51.0236L23.5291 51.0245L23.6019 51.0254L23.6748 51.0264L23.7479 51.0273L23.8212 51.0283L23.8946 51.0292L23.9681 51.0302L24.0418 51.0311L24.1156 51.0321L24.1896 51.033L24.2637 51.034L24.338 51.035L24.4124 51.0359L24.487 51.0369L24.5617 51.0379L24.6365 51.0388L24.7115 51.0398L24.7866 51.0408L24.8619 51.0417L24.9373 51.0427L25.0129 51.0437L25.0886 51.0447L25.1645 51.0456L25.2405 51.0466L25.3166 51.0476L25.3929 51.0486L25.4693 51.0496L25.5459 51.0506L25.6226 51.0516L25.6994 51.0526L25.7764 51.0536L25.8535 51.0546L25.9308 51.0556L26.0082 51.0566L26.0858 51.0576L26.1635 51.0586L26.2413 51.0596L26.3193 51.0606L26.3975 51.0616L26.4757 51.0626L26.5541 51.0636L26.6327 51.0646L26.7114 51.0656L26.7902 51.0667L26.8692 51.0677L26.9483 51.0687L27.0275 51.0697L27.1069 51.0708L27.1865 51.0718L27.2661 51.0728L27.346 51.0739L27.4259 51.0749L27.506 51.0759L27.5862 51.077L27.6666 51.078L27.7471 51.079L27.8278 51.0801L27.9085 51.0811L27.9895 51.0822L28.0705 51.0832L28.1517 51.0843L28.2331 51.0853L28.3146 51.0864L28.3962 51.0874L28.4779 51.0885L28.5598 51.0896L28.6419 51.0906L28.724 51.0917L28.8063 51.0927L28.8888 51.0938L28.9714 51.0949L29.0541 51.0959L29.1369 51.097L29.2199 51.0981L29.3031 51.0992L29.3863 51.1002L29.4697 51.1013L29.5533 51.1024L29.6369 51.1035L29.7207 51.1046L29.8047 51.1056L29.8888 51.1067L29.973 51.1078L30.0573 51.1089L30.1418 51.11L30.2265 51.1111L30.3112 51.1122L30.3961 51.1133L30.4811 51.1144L30.5663 51.1155L30.6516 51.1166L30.737 51.1177L30.8226 51.1188L30.9083 51.1199L30.9941 51.121L31.0801 51.1221L31.1662 51.1232L31.2525 51.1244L31.3388 51.1255L31.4253 51.1266L31.512 51.1277L31.5987 51.1288L31.6856 51.13L31.7727 51.1311L31.8599 51.1322L31.9472 51.1333L32.0346 51.1345L32.1222 51.1356L32.2099 51.1367L32.2977 51.1379L32.3857 51.139L32.4738 51.1402L32.562 51.1413L32.6504 51.1424L32.7388 51.1436L32.8275 51.1447L32.9162 51.1459L33.0051 51.147L33.0941 51.1482L33.1833 51.1493L33.2726 51.1505L33.362 51.1516L33.4515 51.1528L33.5412 51.154L33.631 51.1551L33.7209 51.1563L33.811 51.1574L33.9012 51.1586L33.9915 51.1598L34.082 51.1609L34.1725 51.1621L34.2632 51.1633L34.3541 51.1645L34.4451 51.1656L34.5362 51.1668L34.6274 51.168L34.7187 51.1692L34.8102 51.1704L34.9018 51.1715L34.9936 51.1727L35.0855 51.1739L35.1774 51.1751L35.2696 51.1763L35.3618 51.1775L35.4542 51.1787L35.5467 51.1799L35.6394 51.1811L35.7321 51.1823L35.825 51.1835L35.918 51.1847L36.0112 51.1859L36.1045 51.1871L36.1979 51.1883L36.2914 51.1895L36.385 51.1907L36.4788 51.1919L36.5727 51.1931L36.6668 51.1944L36.7609 51.1956L36.8552 51.1968L36.9496 51.198L37.0441 51.1992L37.1388 51.2005L37.2336 51.2017L37.3285 51.2029L37.4235 51.2042L37.5187 51.2054L37.614 51.2066L37.7094 51.2078L37.8049 51.2091L37.9006 51.2103L37.9964 51.2116L38.0923 51.2128L38.1883 51.214L38.2845 51.2153L38.3808 51.2165L38.4772 51.2178L38.5737 51.219L38.6703 51.2203L38.7671 51.2215L38.864 51.2228L38.961 51.224L39.0582 51.2253L39.1555 51.2265L39.2528 51.2278L39.3504 51.2291L39.448 51.2303L39.5457 51.2316L39.6436 51.2329L39.7416 51.2341L39.8397 51.2354L39.938 51.2367L40.0364 51.2379L40.1348 51.2392L40.2335 51.2405L40.3322 51.2418L40.431 51.243L40.53 51.2443L40.6291 51.2456L40.7283 51.2469L40.8277 51.2482L40.9271 51.2495L41.0267 51.2507L41.1264 51.252L41.2262 51.2533L41.3261 51.2546L41.4262 51.2559L41.5264 51.2572C50.4173 51.3722 57.9149 48.8918 61.7639 43.8209C65.8282 38.4664 65.093 31.3172 59.8347 23.9845L55.7714 26.8982C60.3174 33.2376 60.0135 37.857 57.7813 40.7979C55.3338 44.0223 49.8071 46.3638 41.591 46.2576L41.4908 46.2563L41.3908 46.255L41.2908 46.2537L41.191 46.2524L41.0913 46.2512L40.9918 46.2499L40.8923 46.2486L40.793 46.2473L40.6938 46.246L40.5947 46.2447L40.4957 46.2435L40.3968 46.2422L40.2981 46.2409L40.1995 46.2396L40.101 46.2383L40.0026 46.2371L39.9044 46.2358L39.8063 46.2345L39.7083 46.2333L39.6104 46.232L39.5126 46.2307L39.415 46.2295L39.3175 46.2282L39.2201 46.227L39.1228 46.2257L39.0257 46.2244L38.9287 46.2232L38.8318 46.2219L38.735 46.2207L38.6383 46.2194L38.5418 46.2182L38.4454 46.2169L38.3491 46.2157L38.253 46.2145L38.1569 46.2132L38.061 46.212L37.9652 46.2107L37.8696 46.2095L37.774 46.2083L37.6786 46.207L37.5833 46.2058L37.4882 46.2046L37.3931 46.2033L37.2982 46.2021L37.2034 46.2009L37.1088 46.1997L37.0143 46.1984L36.9198 46.1972L36.8256 46.196L36.7314 46.1948L36.6374 46.1936L36.5435 46.1924L36.4497 46.1911L36.356 46.1899L36.2625 46.1887L36.1691 46.1875L36.0758 46.1863L35.9827 46.1851L35.8897 46.1839L35.7968 46.1827L35.704 46.1815L35.6114 46.1803L35.5189 46.1791L35.4265 46.1779L35.3342 46.1767L35.2421 46.1755L35.1501 46.1743L35.0582 46.1732L34.9665 46.172L34.8749 46.1708L34.7834 46.1696L34.692 46.1684L34.6008 46.1672L34.5097 46.1661L34.4187 46.1649L34.3279 46.1637L34.2372 46.1625L34.1466 46.1614L34.0561 46.1602L33.9658 46.159L33.8756 46.1579L33.7856 46.1567L33.6956 46.1555L33.6058 46.1544L33.5162 46.1532L33.4266 46.1521L33.3372 46.1509L33.2479 46.1497L33.1588 46.1486L33.0698 46.1474L32.9809 46.1463L32.8921 46.1451L32.8035 46.144L32.715 46.1429L32.6266 46.1417L32.5384 46.1406L32.4503 46.1394L32.3623 46.1383L32.2745 46.1372L32.1868 46.136L32.0992 46.1349L32.0118 46.1338L31.9245 46.1326L31.8373 46.1315L31.7503 46.1304L31.6634 46.1293L31.5766 46.1281L31.49 46.127L31.4035 46.1259L31.3171 46.1248L31.2309 46.1237L31.1448 46.1226L31.0588 46.1214L30.9729 46.1203L30.8872 46.1192L30.8017 46.1181L30.7162 46.117L30.6309 46.1159L30.5458 46.1148L30.4608 46.1137L30.3759 46.1126L30.2911 46.1115L30.2065 46.1104L30.122 46.1093L30.0376 46.1082L29.9534 46.1071L29.8693 46.1061L29.7854 46.105L29.7016 46.1039L29.6179 46.1028L29.5344 46.1017L29.451 46.1007L29.3677 46.0996L29.2846 46.0985L29.2016 46.0974L29.1187 46.0964L29.036 46.0953L28.9534 46.0942L28.871 46.0932L28.7887 46.0921L28.7065 46.091L28.6245 46.09L28.5426 46.0889L28.4608 46.0878L28.3792 46.0868L28.2977 46.0857L28.2164 46.0847L28.1352 46.0836L28.0541 46.0826L27.9732 46.0815L27.8924 46.0805L27.8118 46.0795L27.7312 46.0784L27.6509 46.0774L27.5706 46.0763L27.4905 46.0753L27.4106 46.0743L27.3308 46.0732L27.2511 46.0722L27.1716 46.0712L27.0922 46.0702L27.0129 46.0691L26.9338 46.0681L26.8548 46.0671L26.776 46.0661L26.6973 46.065L26.6188 46.064L26.5404 46.063L26.4621 46.062L26.384 46.061L26.306 46.06L26.2281 46.059L26.1504 46.058L26.0729 46.057L25.9955 46.056L25.9182 46.055L25.8411 46.054L25.7641 46.053L25.6872 46.052L25.6105 46.051L25.5339 46.05L25.4575 46.049L25.3812 46.048L25.3051 46.047L25.2291 46.0461L25.1533 46.0451L25.0775 46.0441L25.002 46.0431L24.9266 46.0422L24.8513 46.0412L24.7762 46.0402L24.7012 46.0392L24.6263 46.0383L24.5516 46.0373L24.4771 46.0363L24.4027 46.0354L24.3284 46.0344L24.2543 46.0335L24.1803 46.0325L24.1065 46.0316L24.0328 46.0306L23.9592 46.0296L23.8858 46.0287L23.8126 46.0278L23.7395 46.0268L23.6665 46.0259L23.5937 46.0249L23.521 46.024L23.4485 46.023L23.3761 46.0221L23.3039 46.0212L23.2318 46.0202L23.1599 46.0193L23.0881 46.0184L23.0165 46.0175L22.945 46.0165L22.8736 46.0156L22.8024 46.0147L22.7314 46.0138L22.6605 46.0129L22.5897 46.0119L22.5191 46.011L22.4486 46.0101L22.3783 46.0092L22.3082 46.0083L22.2381 46.0074L22.1683 46.0065L22.0986 46.0056L22.029 46.0047L21.9596 46.0038L21.8903 46.0029L21.8212 46.002L21.7522 46.0011L21.6834 46.0002L21.6147 45.9993L21.5462 45.9984L21.4778 45.9976L21.4095 45.9967L21.3415 45.9958L21.2735 45.9949L21.2058 45.994L21.1381 45.9932L21.0707 45.9923L21.0033 45.9914L20.9362 45.9906L20.8691 45.9897L20.8023 45.9888L20.7355 45.988L20.669 45.9871L20.6026 45.9862L20.5363 45.9854L20.4702 45.9845L20.4042 45.9837L20.3384 45.9828L20.2727 45.982L20.2072 45.9811L20.1419 45.9803L20.0767 45.9794L20.0116 45.9786L19.9467 45.9778L19.882 45.9769L19.8174 45.9761L19.7529 45.9753L19.6887 45.9744L19.6245 45.9736L19.5605 45.9728L19.4967 45.972L19.433 45.9711L19.3695 45.9703L19.3062 45.9695L19.2429 45.9687L19.1799 45.9679L19.117 45.967L19.0542 45.9662L18.9916 45.9654L18.9292 45.9646L18.8669 45.9638L18.8048 45.963L18.7428 45.9622L18.681 45.9614L18.6193 45.9606L18.5578 45.9598L18.4965 45.959L18.4353 45.9582L18.3742 45.9574L18.3134 45.9566L18.2526 45.9559L18.1921 45.9551L18.1316 45.9543L18.0714 45.9535L18.0113 45.9527L17.9513 45.952L17.8915 45.9512L17.8319 45.9504L17.7724 45.9497L17.7131 45.9489L17.654 45.9481L17.595 45.9474L17.5361 45.9466L17.4774 45.9458L17.4189 45.9451L17.3605 45.9443L17.3023 45.9436L17.2442 45.9428L17.1863 45.9421L17.1286 45.9413L17.071 45.9406L17.0136 45.9398L16.9563 45.9391L16.8992 45.9384L16.8423 45.9376L16.7855 45.9369L16.7289 45.9362L16.6724 45.9354L16.6161 45.9347L16.56 45.934L16.504 45.9333L16.4482 45.9325L16.3925 45.9318L16.337 45.9311L16.2816 45.9304L16.2265 45.9297L16.1714 45.929L16.1166 45.9282L16.0619 45.9275L16.0073 45.9268L15.9529 45.9261L15.8987 45.9254L15.8447 45.9247L15.7908 45.924L15.737 45.9233L15.6835 45.9226L15.63 45.922L15.5768 45.9213L15.5237 45.9206L15.4708 45.9199L15.418 45.9192L15.3654 45.9185L15.313 45.9179L15.2607 45.9172L15.2086 45.9165L15.1567 45.9158L15.1049 45.9152L15.0533 45.9145L15.0018 45.9138L14.9505 45.9132L14.8994 45.9125L14.8484 45.9118L14.8376 45.9117L16.2911 44.4953L22.0671 38.8667L18.5776 35.2858L12.8015 40.9144L7.02545 46.543L5.23498 48.2878L6.97974 50.0782Z" fill="#004B15"/>
</svg>
